<?xml version="1.0" encoding="UTF-8" standalone="no"?>
<!-- Created with Inkscape (http://www.inkscape.org/) -->

<svg
   xmlns:dc="http://purl.org/dc/elements/1.1/"
   xmlns:cc="http://creativecommons.org/ns#"
   xmlns:rdf="http://www.w3.org/1999/02/22-rdf-syntax-ns#"
   xmlns:svg="http://www.w3.org/2000/svg"
   xmlns="http://www.w3.org/2000/svg"
   xmlns:sodipodi="http://sodipodi.sourceforge.net/DTD/sodipodi-0.dtd"
   xmlns:inkscape="http://www.inkscape.org/namespaces/inkscape"
   width="744.09448819"
   height="1052.3622047"
   id="svg2"
   version="1.1"
   inkscape:version="0.48.1 r9760"
   sodipodi:docname="avatar.svg">
  <defs
     id="defs4" />
  <sodipodi:namedview
     id="base"
     pagecolor="#ffffff"
     bordercolor="#666666"
     borderopacity="1.0"
     inkscape:pageopacity="0.0"
     inkscape:pageshadow="2"
     inkscape:zoom="0.35074402"
     inkscape:cx="508.01136"
     inkscape:cy="503.11574"
     inkscape:document-units="px"
     inkscape:current-layer="layer2"
     showgrid="false"
     showguides="true"
     inkscape:guide-bbox="true"
     inkscape:window-width="1148"
     inkscape:window-height="736"
     inkscape:window-x="90"
     inkscape:window-y="51"
     inkscape:window-maximized="0" />
  <metadata
     id="metadata7">
    <rdf:RDF>
      <cc:Work
         rdf:about="">
        <dc:format>image/svg+xml</dc:format>
        <dc:type
           rdf:resource="http://purl.org/dc/dcmitype/StillImage" />
        <dc:title></dc:title>
      </cc:Work>
    </rdf:RDF>
  </metadata>
  <g
     inkscape:groupmode="layer"
     id="layer2"
     inkscape:label="basic">
    <g
       id="g3993"
       inkscape:export-filename="/home/jdowner/projects/moonhopper/resources/avatar.png"
       inkscape:export-xdpi="4.8655043"
       inkscape:export-ydpi="4.8655043">
      <path
         inkscape:connector-curvature="0"
         id="path3863"
         d="m 358.86348,171.35054 c -50.2744,0 -94.88546,14.95813 -122.84375,38.0625 -0.19046,-0.1194 -0.36864,-0.26021 -0.5625,-0.375 -29.13004,-17.24937 -85.57778,24.23454 -126.09375,92.65625 -40.515975,68.42171 -49.755042,137.87563 -20.625005,155.125 29.130035,17.24937 85.577785,-24.23454 126.093755,-92.65625 8.28747,-13.99554 15.26607,-28.0302 20.875,-41.65625 9.73503,8.10563 21.49209,15.23722 34.84375,21.0625 -12.69132,24.7451 -20.15625,55.01665 -20.15625,87.75 0,49.14319 16.83713,92.79794 42.90625,120.40625 -27.89808,11.32158 -47.6867,29.66692 -52.84375,50.96875 -21.77643,22.08915 -37.03125,72.96176 -37.03125,132.21875 0,79.51776 27.4584,143.99995 61.3125,143.99995 33.8541,0 61.3125,-64.48219 61.3125,-143.99995 0,-17.81059 -1.38896,-34.84898 -3.90625,-50.59375 11.57571,2.30697 23.90407,3.5625 36.71875,3.5625 16.5334,0 32.27011,-2.06171 46.59375,-5.8125 -3.39549,17.89131 -5.28125,37.70924 -5.28125,58.5625 0,79.51776 27.42715,143.9688 61.28125,143.9688 33.8541,0 61.3125,-64.45104 61.3125,-143.9688 0,-67.01279 -19.51345,-123.34976 -45.90625,-139.40625 -5.68985,-20.67254 -25.19184,-38.43859 -52.4375,-49.5 26.06912,-27.60831 42.90625,-71.26306 42.90625,-120.40625 0,-32.73335 -7.49618,-63.0049 -20.1875,-87.75 11.34856,-4.94914 21.55504,-10.84209 30.34375,-17.46875 5.33471,12.48982 11.78566,25.29871 19.34375,38.0625 40.51597,68.42171 96.96371,109.90562 126.09375,92.65625 29.13004,-17.24937 19.92222,-86.70329 -20.59375,-155.125 -39.12693,-66.07596 -93.13937,-107.05499 -123.03125,-94.25 -28.07561,-21.98866 -71.59665,-36.09375 -120.4375,-36.09375 z"
         style="fill:#ffffff;fill-opacity:1;stroke:#000000;stroke-width:5;stroke-miterlimit:4;stroke-opacity:1;stroke-dasharray:none" />
      <path
         transform="translate(96.768932,-146.99321)"
         d="m 374.97964,229.82622 a 112.89709,112.89709 0 1 1 -225.79418,0 112.89709,112.89709 0 1 1 225.79418,0 z"
         sodipodi:ry="112.89709"
         sodipodi:rx="112.89709"
         sodipodi:cy="229.82622"
         sodipodi:cx="262.08255"
         id="path3861"
         style="fill:#ffffff;fill-opacity:1;stroke:#000000;stroke-width:5;stroke-miterlimit:4;stroke-opacity:1;stroke-dasharray:none"
         sodipodi:type="arc" />
      <path
         sodipodi:type="arc"
         style="fill:#ffffff;fill-opacity:1;stroke:#000000;stroke-width:5;stroke-miterlimit:4;stroke-opacity:1;stroke-dasharray:none"
         id="path3871"
         sodipodi:cx="186.74588"
         sodipodi:cy="919.78687"
         sodipodi:rx="61.298267"
         sodipodi:ry="143.97964"
         d="m 248.04415,919.78687 a 61.298267,143.97964 0 1 1 -122.59654,0 61.298267,143.97964 0 1 1 122.59654,0 z"
         transform="translate(75.141236,71.731461)" />
      <path
         sodipodi:type="arc"
         style="fill:#ffffff;fill-opacity:1;stroke:#000000;stroke-width:5;stroke-miterlimit:4;stroke-opacity:1;stroke-dasharray:none"
         id="path3875"
         sodipodi:cx="186.74588"
         sodipodi:cy="919.78687"
         sodipodi:rx="61.298267"
         sodipodi:ry="143.97964"
         d="m 248.04415,919.78687 a 61.298267,143.97964 0 1 1 -122.59654,0 61.298267,143.97964 0 1 1 122.59654,0 z"
         transform="matrix(0.99703779,-0.0769133,0.0769133,0.99703779,-131.90135,-390.16251)" />
      <path
         transform="matrix(-0.99703779,-0.0769133,-0.0769133,0.99703779,843.57403,-390.16251)"
         d="m 248.04415,919.78687 a 61.298267,143.97964 0 1 1 -122.59654,0 61.298267,143.97964 0 1 1 122.59654,0 z"
         sodipodi:ry="143.97964"
         sodipodi:rx="61.298267"
         sodipodi:cy="919.78687"
         sodipodi:cx="186.74588"
         id="path3885"
         style="fill:#ffffff;fill-opacity:1;stroke:#000000;stroke-width:5;stroke-miterlimit:4;stroke-opacity:1;stroke-dasharray:none"
         sodipodi:type="arc" />
      <path
         transform="translate(271.86591,77.433621)"
         d="m 248.04415,919.78687 a 61.298267,143.97964 0 1 1 -122.59654,0 61.298267,143.97964 0 1 1 122.59654,0 z"
         sodipodi:ry="143.97964"
         sodipodi:rx="61.298267"
         sodipodi:cy="919.78687"
         sodipodi:cx="186.74588"
         id="path3895"
         style="fill:#ffffff;fill-opacity:1;stroke:#000000;stroke-width:5;stroke-miterlimit:4;stroke-opacity:1;stroke-dasharray:none"
         sodipodi:type="arc" />
      <path
         sodipodi:nodetypes="sssss"
         inkscape:connector-curvature="0"
         id="path3914"
         d="m 542.71871,1136.9235 c 0,33.0668 15.91834,59.8728 -72.7026,59.8728 -91.47201,0 -72.70259,-26.806 -72.70259,-59.8728 0,-33.0668 32.55006,-59.8727 72.70259,-59.8727 40.15254,0 72.7026,26.8059 72.7026,59.8727 z"
         style="fill:#ffffff;fill-opacity:1;stroke:#000000;stroke-width:5;stroke-miterlimit:4;stroke-opacity:1" />
      <path
         style="fill:#ffffff;fill-opacity:1;stroke:#000000;stroke-width:5;stroke-miterlimit:4;stroke-opacity:1"
         d="m 325.73863,1136.9235 c 0,33.0668 15.91834,59.8728 -72.70259,59.8728 -91.47202,0 -72.7026,-26.806 -72.7026,-59.8728 0,-33.0668 32.55006,-59.8727 72.7026,-59.8727 40.15253,0 72.70259,26.8059 72.70259,59.8727 z"
         id="path3917"
         inkscape:connector-curvature="0"
         sodipodi:nodetypes="sssss" />
      <path
         transform="translate(405.01569,-89.631306)"
         d="m -114.04329,962.5531 a 28.51082,27.085279 0 1 1 -57.02164,0 28.51082,27.085279 0 1 1 57.02164,0 z"
         sodipodi:ry="27.085279"
         sodipodi:rx="28.51082"
         sodipodi:cy="962.5531"
         sodipodi:cx="-142.55411"
         id="path3919"
         style="fill:#ffffff;fill-opacity:1;stroke:#000000;stroke-width:5;stroke-miterlimit:4;stroke-opacity:1;stroke-dasharray:none"
         sodipodi:type="arc" />
      <path
         sodipodi:type="arc"
         style="fill:#ffffff;fill-opacity:1;stroke:#000000;stroke-width:5;stroke-miterlimit:4;stroke-opacity:1;stroke-dasharray:none"
         id="path3921"
         sodipodi:cx="-142.55411"
         sodipodi:cy="962.5531"
         sodipodi:rx="28.51082"
         sodipodi:ry="27.085279"
         d="m -114.04329,962.5531 a 28.51082,27.085279 0 1 1 -57.02164,0 28.51082,27.085279 0 1 1 57.02164,0 z"
         transform="translate(599.01569,-85.631306)" />
      <path
         transform="matrix(1.5056607,0,0,1.5056607,805.63258,-1039.825)"
         d="m -114.04329,962.5531 a 28.51082,27.085279 0 1 1 -57.02164,0 28.51082,27.085279 0 1 1 57.02164,0 z"
         sodipodi:ry="27.085279"
         sodipodi:rx="28.51082"
         sodipodi:cy="962.5531"
         sodipodi:cx="-142.55411"
         id="path3923"
         style="fill:#ffffff;fill-opacity:1;stroke:#000000;stroke-width:3.32080126;stroke-miterlimit:4;stroke-opacity:1;stroke-dasharray:none"
         sodipodi:type="arc" />
      <path
         sodipodi:type="arc"
         style="fill:#ffffff;fill-opacity:1;stroke:#000000;stroke-width:3.32080126;stroke-miterlimit:4;stroke-opacity:1;stroke-dasharray:none"
         id="path3925"
         sodipodi:cx="-142.55411"
         sodipodi:cy="962.5531"
         sodipodi:rx="28.51082"
         sodipodi:ry="27.085279"
         d="m -114.04329,962.5531 a 28.51082,27.085279 0 1 1 -57.02164,0 28.51082,27.085279 0 1 1 57.02164,0 z"
         transform="matrix(1.5056607,0,0,1.5056607,334.35295,-1043.5271)" />
      <path
         sodipodi:nodetypes="sssss"
         inkscape:connector-curvature="0"
         id="path3946"
         d="m 478.29274,50.66122 c 0,66.92089 5.62262,121.17099 -121.17099,121.17099 -121.09145,0 -121.17099,-54.2501 -121.17099,-121.17099 0,-92.58063 54.2501,-121.170987 121.17099,-121.170987 66.92089,0 121.17099,31.441437 121.17099,121.170987 z"
         style="fill:#ffffff;fill-opacity:1;stroke:#000000;stroke-width:5;stroke-miterlimit:4;stroke-opacity:1" />
      <path
         sodipodi:nodetypes="zzccz"
         inkscape:connector-curvature="0"
         id="rect3949"
         d="m 274.717,23.575951 c 30.5763,-30.5763004 134.78646,-30.5763004 165.36276,0 30.5763,30.5763 0,94.085709 0,94.085709 l -165.36276,0 c 0,0 -30.5763,-63.509409 0,-94.085709 z"
         style="fill:#ffffff;fill-opacity:1;stroke:#000000;stroke-width:5;stroke-miterlimit:4;stroke-opacity:1" />
    </g>
  </g>
  <g
     inkscape:groupmode="layer"
     id="layer4"
     inkscape:label="color"
     style="display:inline">
    <g
       id="g4172"
       inkscape:export-filename="/home/jdowner/projects/moonhopper/resources/avatar.png"
       inkscape:export-xdpi="4.8655043"
       inkscape:export-ydpi="4.8655043">
      <path
         inkscape:connector-curvature="0"
         id="path3863-7"
         d="m 357.81452,170.6607 c -50.2744,0 -94.88546,14.95813 -122.84375,38.0625 -0.19046,-0.1194 -0.36864,-0.26021 -0.5625,-0.375 -29.13004,-17.24937 -85.57778,24.23454 -126.09375,92.65625 -40.51597,68.42171 -49.755037,137.87563 -20.625,155.125 29.13003,17.24937 85.57778,-24.23454 126.09375,-92.65625 8.28747,-13.99554 15.26607,-28.0302 20.875,-41.65625 9.73503,8.10563 21.49209,15.23722 34.84375,21.0625 -12.69132,24.7451 -20.15625,55.01665 -20.15625,87.75 0,49.14319 16.83713,92.79794 42.90625,120.40625 -27.89808,11.32158 -47.6867,29.66692 -52.84375,50.96875 -21.77643,22.08915 -37.03125,72.96176 -37.03125,132.21875 0,79.51776 27.4584,143.99995 61.3125,143.99995 33.8541,0 61.3125,-64.48219 61.3125,-143.99995 0,-17.81059 -1.38896,-34.84898 -3.90625,-50.59375 11.57571,2.30697 23.90407,3.5625 36.71875,3.5625 16.5334,0 32.27011,-2.06171 46.59375,-5.8125 -3.39549,17.89131 -5.28125,37.70924 -5.28125,58.5625 0,79.51776 27.42715,143.9688 61.28125,143.9688 33.8541,0 61.3125,-64.45104 61.3125,-143.9688 0,-67.01279 -19.51345,-123.34976 -45.90625,-139.40625 -5.68985,-20.67254 -25.19184,-38.43859 -52.4375,-49.5 26.06912,-27.60831 42.90625,-71.26306 42.90625,-120.40625 0,-32.73335 -7.49618,-63.0049 -20.1875,-87.75 11.34856,-4.94914 21.55504,-10.84209 30.34375,-17.46875 5.33471,12.48982 11.78566,25.29871 19.34375,38.0625 40.51597,68.42171 96.96371,109.90562 126.09375,92.65625 29.13004,-17.24937 19.92222,-86.70329 -20.59375,-155.125 -39.12693,-66.07596 -93.13937,-107.05499 -123.03125,-94.25 -28.07561,-21.98866 -71.59665,-36.09375 -120.4375,-36.09375 z"
         style="fill:#ff6600;fill-opacity:1;stroke:#000000;stroke-width:5;stroke-miterlimit:4;stroke-opacity:1;stroke-dasharray:none" />
      <path
         transform="translate(95.719977,-147.68305)"
         d="m 374.97964,229.82622 a 112.89709,112.89709 0 1 1 -225.79418,0 112.89709,112.89709 0 1 1 225.79418,0 z"
         sodipodi:ry="112.89709"
         sodipodi:rx="112.89709"
         sodipodi:cy="229.82622"
         sodipodi:cx="262.08255"
         id="path3861-6"
         style="fill:#ff6600;fill-opacity:1;stroke:#000000;stroke-width:5;stroke-miterlimit:4;stroke-opacity:1;stroke-dasharray:none"
         sodipodi:type="arc" />
      <path
         sodipodi:type="arc"
         style="fill:#ff6600;fill-opacity:1;stroke:#000000;stroke-width:5;stroke-miterlimit:4;stroke-opacity:1;stroke-dasharray:none"
         id="path3871-5"
         sodipodi:cx="186.74588"
         sodipodi:cy="919.78687"
         sodipodi:rx="61.298267"
         sodipodi:ry="143.97964"
         d="m 248.04415,919.78687 a 61.298267,143.97964 0 1 1 -122.59654,0 61.298267,143.97964 0 1 1 122.59654,0 z"
         transform="translate(74.092281,71.041619)" />
      <path
         sodipodi:type="arc"
         style="fill:#ff6600;fill-opacity:1;stroke:#000000;stroke-width:5;stroke-miterlimit:4;stroke-opacity:1;stroke-dasharray:none"
         id="path3875-6"
         sodipodi:cx="186.74588"
         sodipodi:cy="919.78687"
         sodipodi:rx="61.298267"
         sodipodi:ry="143.97964"
         d="m 248.04415,919.78687 a 61.298267,143.97964 0 1 1 -122.59654,0 61.298267,143.97964 0 1 1 122.59654,0 z"
         transform="matrix(0.99703779,-0.0769133,0.0769133,0.99703779,-132.95031,-390.85235)" />
      <path
         transform="matrix(-0.99703779,-0.0769133,-0.0769133,0.99703779,842.52507,-390.85235)"
         d="m 248.04415,919.78687 a 61.298267,143.97964 0 1 1 -122.59654,0 61.298267,143.97964 0 1 1 122.59654,0 z"
         sodipodi:ry="143.97964"
         sodipodi:rx="61.298267"
         sodipodi:cy="919.78687"
         sodipodi:cx="186.74588"
         id="path3885-9"
         style="fill:#ff6600;fill-opacity:1;stroke:#000000;stroke-width:5;stroke-miterlimit:4;stroke-opacity:1;stroke-dasharray:none"
         sodipodi:type="arc" />
      <path
         transform="translate(270.81695,76.743779)"
         d="m 248.04415,919.78687 a 61.298267,143.97964 0 1 1 -122.59654,0 61.298267,143.97964 0 1 1 122.59654,0 z"
         sodipodi:ry="143.97964"
         sodipodi:rx="61.298267"
         sodipodi:cy="919.78687"
         sodipodi:cx="186.74588"
         id="path3895-3"
         style="fill:#ff6600;fill-opacity:1;stroke:#000000;stroke-width:5;stroke-miterlimit:4;stroke-opacity:1;stroke-dasharray:none"
         sodipodi:type="arc" />
      <path
         sodipodi:nodetypes="sssss"
         inkscape:connector-curvature="0"
         id="path3914-7"
         d="m 541.66975,1136.2337 c 0,33.0668 15.91834,59.8728 -72.7026,59.8728 -91.47201,0 -72.70259,-26.806 -72.70259,-59.8728 0,-33.0668 32.55006,-59.8727 72.70259,-59.8727 40.15254,0 72.7026,26.8059 72.7026,59.8727 z"
         style="fill:#ff6600;fill-opacity:1;stroke:#000000;stroke-width:5;stroke-miterlimit:4;stroke-opacity:1" />
      <path
         style="fill:#ff6600;fill-opacity:1;stroke:#000000;stroke-width:5;stroke-miterlimit:4;stroke-opacity:1"
         d="m 324.68967,1136.2337 c 0,33.0668 15.91834,59.8728 -72.70259,59.8728 -91.47202,0 -72.7026,-26.806 -72.7026,-59.8728 0,-33.0668 32.55006,-59.8727 72.7026,-59.8727 40.15253,0 72.70259,26.8059 72.70259,59.8727 z"
         id="path3917-4"
         inkscape:connector-curvature="0"
         sodipodi:nodetypes="sssss" />
      <path
         transform="translate(403.96673,-90.321148)"
         d="m -114.04329,962.5531 a 28.51082,27.085279 0 1 1 -57.02164,0 28.51082,27.085279 0 1 1 57.02164,0 z"
         sodipodi:ry="27.085279"
         sodipodi:rx="28.51082"
         sodipodi:cy="962.5531"
         sodipodi:cx="-142.55411"
         id="path3919-5"
         style="fill:#ff6600;fill-opacity:1;stroke:#000000;stroke-width:5;stroke-miterlimit:4;stroke-opacity:1;stroke-dasharray:none"
         sodipodi:type="arc" />
      <path
         sodipodi:type="arc"
         style="fill:#ff6600;fill-opacity:1;stroke:#000000;stroke-width:5;stroke-miterlimit:4;stroke-opacity:1;stroke-dasharray:none"
         id="path3921-2"
         sodipodi:cx="-142.55411"
         sodipodi:cy="962.5531"
         sodipodi:rx="28.51082"
         sodipodi:ry="27.085279"
         d="m -114.04329,962.5531 a 28.51082,27.085279 0 1 1 -57.02164,0 28.51082,27.085279 0 1 1 57.02164,0 z"
         transform="translate(597.96673,-86.321148)" />
      <path
         transform="matrix(1.5056607,0,0,1.5056607,804.58362,-1040.5148)"
         d="m -114.04329,962.5531 a 28.51082,27.085279 0 1 1 -57.02164,0 28.51082,27.085279 0 1 1 57.02164,0 z"
         sodipodi:ry="27.085279"
         sodipodi:rx="28.51082"
         sodipodi:cy="962.5531"
         sodipodi:cx="-142.55411"
         id="path3923-5"
         style="fill:#ff6600;fill-opacity:1;stroke:#000000;stroke-width:3.32080126;stroke-miterlimit:4;stroke-opacity:1;stroke-dasharray:none"
         sodipodi:type="arc" />
      <path
         sodipodi:type="arc"
         style="fill:#ff6600;fill-opacity:1;stroke:#000000;stroke-width:3.32080126;stroke-miterlimit:4;stroke-opacity:1;stroke-dasharray:none"
         id="path3925-4"
         sodipodi:cx="-142.55411"
         sodipodi:cy="962.5531"
         sodipodi:rx="28.51082"
         sodipodi:ry="27.085279"
         d="m -114.04329,962.5531 a 28.51082,27.085279 0 1 1 -57.02164,0 28.51082,27.085279 0 1 1 57.02164,0 z"
         transform="matrix(1.5056607,0,0,1.5056607,333.30399,-1044.2169)" />
      <path
         sodipodi:nodetypes="sssss"
         inkscape:connector-curvature="0"
         id="path3946-7"
         d="m 477.24378,49.971378 c 0,66.920892 5.62262,121.170992 -121.17099,121.170992 -121.09145,0 -121.17099,-54.2501 -121.17099,-121.170992 0,-92.58063 54.2501,-121.170987 121.17099,-121.170987 66.92089,0 121.17099,31.441437 121.17099,121.170987 z"
         style="fill:#ff6600;fill-opacity:1;stroke:#000000;stroke-width:5;stroke-miterlimit:4;stroke-opacity:1" />
      <path
         sodipodi:nodetypes="zzccz"
         inkscape:connector-curvature="0"
         id="rect3949-4"
         d="m 273.66804,22.886109 c 30.5763,-30.5763008 134.78646,-30.5763008 165.36276,0 30.5763,30.5763 0,94.085711 0,94.085711 l -165.36276,0 c 0,0 -30.5763,-63.509411 0,-94.085711 z"
         style="fill:#000000;fill-opacity:1;stroke:#000000;stroke-width:5;stroke-miterlimit:4;stroke-opacity:1" />
    </g>
  </g>
  <g
     inkscape:groupmode="layer"
     id="layer5"
     inkscape:label="highlights">
    <g
       id="g4194"
       transform="translate(0,-1.425541)"
       style="fill:#e3dbdb"
       inkscape:export-filename="/home/jdowner/projects/moonhopper/resources/avatar.png"
       inkscape:export-xdpi="4.8655043"
       inkscape:export-ydpi="4.8655043">
      <rect
         y="1175.5299"
         x="189.95334"
         height="4.5565104"
         width="124.02207"
         id="rect4188"
         style="fill:#e3dbdb;fill-opacity:1;stroke:none" />
      <rect
         style="fill:#e3dbdb;fill-opacity:1;stroke:none"
         id="rect4190"
         width="124.02207"
         height="4.5565104"
         x="189.95334"
         y="1165.9075" />
      <rect
         y="1156.285"
         x="189.95334"
         height="4.5565104"
         width="124.02207"
         id="rect4192"
         style="fill:#e3dbdb;fill-opacity:1;stroke:none" />
    </g>
    <g
       id="g4199"
       transform="translate(216.68224,-1.425541)"
       style="fill:#e3dbdb"
       inkscape:export-filename="/home/jdowner/projects/moonhopper/resources/avatar.png"
       inkscape:export-xdpi="4.8655043"
       inkscape:export-ydpi="4.8655043">
      <rect
         style="fill:#e3dbdb;fill-opacity:1;stroke:none"
         id="rect4201"
         width="124.02207"
         height="4.5565104"
         x="189.95334"
         y="1175.5299" />
      <rect
         y="1165.9075"
         x="189.95334"
         height="4.5565104"
         width="124.02207"
         id="rect4203"
         style="fill:#e3dbdb;fill-opacity:1;stroke:none" />
      <rect
         style="fill:#e3dbdb;fill-opacity:1;stroke:none"
         id="rect4205"
         width="124.02207"
         height="4.5565104"
         x="189.95334"
         y="1156.285" />
    </g>
    <path
       style="fill:#e3dbdb;fill-opacity:1;stroke:none"
       d="m 607,460.09375 c 0.15614,0.90928 0.35106,1.76802 0.5,2.6875 0.64923,4.00791 1.25018,8.11654 1.75,12.3125 0.49982,4.19596 0.90819,8.48218 1.25,12.84375 0.34181,4.36157 0.60605,8.77653 0.78125,13.28125 0.1752,4.50472 0.25,9.09334 0.25,13.71875 0,4.62541 -0.0748,9.18278 -0.25,13.6875 -0.1752,4.50472 -0.43944,8.95093 -0.78125,13.3125 -0.34181,4.36157 -0.75018,8.64779 -1.25,12.84375 -0.49982,4.19596 -1.10077,8.30459 -1.75,12.3125 -0.64923,4.00791 -1.36621,7.92135 -2.15625,11.71875 -0.79004,3.7974 -1.64025,7.4668 -2.5625,11.03125 -0.92225,3.56445 -1.92289,7.00346 -2.96875,10.3125 -1.04586,3.30904 -2.15163,6.50008 -3.3125,9.53125 -1.16087,3.03117 -2.35771,5.92539 -3.625,8.65625 -1.26729,2.73086 -2.60364,5.27941 -3.96875,7.6875 -0.48049,0.8476 -0.97686,1.56927 -1.46875,2.375 26.27773,-5.84171 46.90625,-63.31126 46.90625,-133.4375 0,-16.85795 -1.23054,-32.92101 -3.40625,-47.78125 -1.62811,1.31279 -3.29405,2.60762 -5.03125,3.78125 -1.97182,1.33214 -3.99306,2.54634 -6.09375,3.6875 -2.10069,1.14116 -4.28286,2.18723 -6.5,3.125 -2.05399,0.86877 -4.16883,1.62856 -6.3125,2.3125 z"
       id="path4222"
       inkscape:connector-curvature="0"
       inkscape:export-filename="/home/jdowner/projects/moonhopper/resources/avatar.png"
       inkscape:export-xdpi="4.8655043"
       inkscape:export-ydpi="4.8655043" />
    <path
       id="path4224"
       d="m 98.735385,454.39159 c -0.15614,0.90928 -0.35106,1.76802 -0.5,2.6875 -0.64923,4.00791 -1.25018,8.11654 -1.75,12.3125 -0.49982,4.19596 -0.90819,8.48218 -1.25,12.84375 -0.34181,4.36157 -0.60605,8.77653 -0.78125,13.28125 -0.1752,4.50472 -0.25,9.09334 -0.25,13.71875 0,4.62541 0.0748,9.18278 0.25,13.6875 0.1752,4.50472 0.43944,8.95093 0.78125,13.3125 0.34181,4.36157 0.75018,8.64779 1.25,12.84375 0.49982,4.19596 1.10077,8.30459 1.75,12.3125 0.64923,4.00791 1.36621,7.92135 2.156255,11.71875 0.79004,3.7974 1.64025,7.4668 2.5625,11.03125 0.92225,3.56445 1.92289,7.00346 2.96875,10.3125 1.04586,3.30904 2.15163,6.50008 3.3125,9.53125 1.16087,3.03117 2.35771,5.92539 3.625,8.65625 1.26729,2.73086 2.60364,5.27941 3.96875,7.6875 0.48049,0.8476 0.97686,1.56927 1.46875,2.375 -26.277735,-5.84171 -46.906255,-63.31126 -46.906255,-133.4375 0,-16.85795 1.23054,-32.92101 3.40625,-47.78125 1.62811,1.31279 3.29405,2.60762 5.03125,3.78125 1.97182,1.33214 3.99306,2.54634 6.09375,3.6875 2.10069,1.14116 4.28286,2.18723 6.5,3.125 2.05399,0.86877 4.16883,1.62856 6.3125,2.3125 z"
       style="fill:#e3dbdb;fill-opacity:1;stroke:none"
       inkscape:connector-curvature="0"
       inkscape:export-filename="/home/jdowner/projects/moonhopper/resources/avatar.png"
       inkscape:export-xdpi="4.8655043"
       inkscape:export-ydpi="4.8655043" />
    <path
       inkscape:connector-curvature="0"
       style="fill:#e3dbdb;fill-opacity:1;stroke:none"
       d="m 256.01931,644.14375 c -0.32647,0.98818 -0.68142,1.91203 -1.00276,2.91306 -1.40071,4.36338 -2.77317,8.8492 -4.0629,13.45291 -1.28974,4.60371 -2.50682,9.32669 -3.67287,14.14727 -1.16604,4.8206 -2.26605,9.71639 -3.29568,14.73039 -1.02962,5.01401 -1.97659,10.14192 -2.85709,15.32587 -0.8805,5.18396 -1.67457,10.30645 -2.35999,15.38983 -0.68542,5.08336 -1.27223,10.11877 -1.76673,15.07468 -0.4945,4.9559 -0.90928,9.84054 -1.21704,14.64212 -0.30776,4.80158 -0.49955,9.52529 -0.62474,14.14568 -0.12519,4.62039 -0.16585,9.14832 -0.11264,13.56065 0.0532,4.41233 0.18987,8.69312 0.4173,12.87054 0.22742,4.17741 0.55572,8.22977 0.95319,12.14542 0.39747,3.91563 0.87626,7.71088 1.43959,11.33785 0.56335,3.62697 1.18809,7.10758 1.91314,10.41905 0.72505,3.31148 1.55264,6.43228 2.43522,9.40137 0.31066,1.04506 0.66088,1.95212 0.9907,2.95251 -24.70139,-11.74845 -34.02545,-80.24086 -20.67615,-158.83519 3.2091,-18.89364 7.47568,-36.65283 12.44175,-52.87687 1.34945,1.79359 2.73946,3.57453 4.22256,5.23373 1.68339,1.8833 3.43778,3.6442 5.28411,5.33896 1.84635,1.69476 3.79082,3.29909 5.79028,4.78895 1.85232,1.38024 3.78515,2.65038 5.76075,3.84122 z"
       id="path4226"
       inkscape:export-filename="/home/jdowner/projects/moonhopper/resources/avatar.png"
       inkscape:export-xdpi="4.8655043"
       inkscape:export-ydpi="4.8655043" />
    <path
       id="path4228"
       d="m 463.61744,649.84591 c 0.32647,0.98818 0.68142,1.91203 1.00276,2.91306 1.40071,4.36338 2.77317,8.8492 4.0629,13.45291 1.28974,4.60371 2.50682,9.32669 3.67287,14.14727 1.16604,4.8206 2.26605,9.71639 3.29568,14.73039 1.02962,5.01401 1.97659,10.14192 2.85709,15.32587 0.8805,5.18396 1.67457,10.30645 2.35999,15.38983 0.68542,5.08336 1.27223,10.11877 1.76673,15.07468 0.4945,4.9559 0.90928,9.84054 1.21704,14.64212 0.30776,4.80158 0.49955,9.52529 0.62474,14.14568 0.12519,4.62039 0.16585,9.14832 0.11264,13.56065 -0.0532,4.41233 -0.18987,8.69312 -0.4173,12.87054 -0.22742,4.17741 -0.55572,8.22977 -0.95319,12.14542 -0.39747,3.91563 -0.87626,7.71088 -1.43959,11.33785 -0.56335,3.62697 -1.18809,7.10758 -1.91314,10.41905 -0.72505,3.31148 -1.55264,6.43228 -2.43522,9.40137 -0.31066,1.04506 -0.66088,1.95212 -0.9907,2.95251 24.70139,-11.74845 34.02545,-80.24086 20.67615,-158.83519 -3.2091,-18.89364 -7.47568,-36.65283 -12.44175,-52.87687 -1.34945,1.79359 -2.73946,3.57453 -4.22256,5.23373 -1.68339,1.8833 -3.43778,3.6442 -5.28411,5.33896 -1.84635,1.69476 -3.79082,3.29909 -5.79028,4.78895 -1.85232,1.38024 -3.78515,2.65038 -5.76075,3.84122 z"
       style="fill:#e3dbdb;fill-opacity:1;stroke:none"
       inkscape:connector-curvature="0"
       inkscape:export-filename="/home/jdowner/projects/moonhopper/resources/avatar.png"
       inkscape:export-xdpi="4.8655043"
       inkscape:export-ydpi="4.8655043" />
    <path
       style="fill:#e3dbdb;fill-opacity:1;stroke:none"
       d="m 296.33586,345.21875 c -14.35585,24.30401 -23.15625,57.2578 -23.15625,93.53125 0,74.76417 37.44945,135.34375 83.65625,135.34375 46.2068,0 83.6875,-60.57958 83.6875,-135.34375 0,-36.0291 -8.72138,-68.77562 -22.90625,-93.03125 -18.02343,4.69559 -38.29864,7.34375 -59.75,7.34375 -22.16496,0 -43.06505,-2.85116 -61.53125,-7.84375 z"
       id="path4233"
       inkscape:connector-curvature="0"
       inkscape:export-filename="/home/jdowner/projects/moonhopper/resources/avatar.png"
       inkscape:export-xdpi="4.8655043"
       inkscape:export-ydpi="4.8655043" />
    <path
       style="fill:#e3dbdb;fill-opacity:1;stroke:none"
       d="m 260.6875,227.75 c -19.18141,12.18274 -30.84375,28.02702 -30.84375,45.375 0,38.41288 56.85474,69.5625 127,69.5625 70.14526,0 127.03125,-31.14962 127.03125,-69.5625 0,-17.34798 -11.69359,-33.19226 -30.875,-45.375 -2.05898,1.30815 -4.1149,2.62319 -6.34375,3.84375 -2.87302,1.57332 -5.86362,3.05131 -9,4.46875 -3.13638,1.41744 -6.40278,2.75009 -9.78125,4 -3.37847,1.24991 -6.86948,2.42927 -10.46875,3.5 -3.59927,1.07073 -7.32621,2.05761 -11.125,2.9375 -3.79879,0.87989 -7.67921,1.6351 -11.65625,2.3125 -3.97704,0.6774 -8.0535,1.2555 -12.1875,1.71875 -4.134,0.46325 -8.32407,0.82505 -12.59375,1.0625 -4.26968,0.23745 -8.61592,0.375 -13,0.375 -4.38408,0 -8.69907,-0.13755 -12.96875,-0.375 -4.26968,-0.23745 -8.491,-0.59925 -12.625,-1.0625 -4.134,-0.46325 -8.17921,-1.04135 -12.15625,-1.71875 -3.97704,-0.6774 -7.88871,-1.43261 -11.6875,-2.3125 -3.79879,-0.87989 -7.49448,-1.86677 -11.09375,-2.9375 -3.59927,-1.07073 -7.09028,-2.25009 -10.46875,-3.5 -3.37847,-1.24991 -6.64487,-2.58256 -9.78125,-4 -3.13638,-1.41744 -6.15823,-2.89543 -9.03125,-4.46875 -2.22885,-1.22056 -4.28477,-2.5356 -6.34375,-3.84375 z"
       id="path4249"
       inkscape:connector-curvature="0"
       inkscape:export-filename="/home/jdowner/projects/moonhopper/resources/avatar.png"
       inkscape:export-xdpi="4.8655043"
       inkscape:export-ydpi="4.8655043" />
    <path
       style="fill:#e3dbdb;fill-opacity:1;stroke:none"
       d="m 453.40625,1054.117 c 0.78393,-0.116 1.54851,-0.2894 2.34375,-0.375 2.27038,-0.2443 4.57503,-0.3438 6.90625,-0.3438 2.33122,0 4.63587,0.1 6.90625,0.3438 2.27038,0.2443 4.52051,0.617 6.71875,1.0938 2.19824,0.4765 4.35398,1.0842 6.46875,1.7812 2.11477,0.697 4.16751,1.501 6.1875,2.4062 1.55973,0.6992 3.06525,1.4955 4.5625,2.3126 4.02212,-19.1184 6.46875,-41.3549 6.46875,-65.40631 0,-36.06756 -5.26972,-68.50004 -13.625,-91.46875 -0.65988,0.77006 -1.2208,1.62705 -1.9375,2.34375 -1.77854,1.77854 -3.72107,3.36831 -5.8125,4.78125 -1.584,1.07013 -3.32287,1.91602 -5.0625,2.75 0.61102,2.36962 1.19332,4.7933 1.6875,7.3125 0.56406,2.87539 1.03063,5.82336 1.4375,8.875 0.40687,3.05164 0.75562,6.1982 1,9.40625 0.24438,3.20805 0.39217,6.49914 0.46875,9.84375 0.0766,3.34461 0.0653,6.75742 -0.0312,10.21875 -0.0965,3.46133 -0.28758,6.97305 -0.5625,10.53125 -0.27492,3.5582 -0.63513,7.14603 -1.09375,10.78125 -0.45862,3.63522 -1.00862,7.30759 -1.65625,11 -0.64763,3.69241 -1.38467,7.3181 -2.1875,10.87501 -0.80283,3.5569 -1.67855,7.0321 -2.625,10.4375 -0.94645,3.4054 -1.95277,6.7309 -3.03125,9.9688 -1.07848,3.2378 -2.20734,6.4144 -3.40625,9.4687 -1.19891,3.0543 -2.47349,5.989 -3.78125,8.8437 -1.30776,2.8548 -2.65748,5.6108 -4.0625,8.25 -0.73519,1.3811 -1.52185,2.6501 -2.28125,3.9688 z"
       id="path4266"
       inkscape:connector-curvature="0"
       inkscape:export-filename="/home/jdowner/projects/moonhopper/resources/avatar.png"
       inkscape:export-xdpi="4.8655043"
       inkscape:export-ydpi="4.8655043" />
    <path
       id="path4268"
       d="m 262.07845,1054.117 c -0.78393,-0.116 -1.54851,-0.2894 -2.34375,-0.375 -2.27038,-0.2443 -4.57503,-0.3438 -6.90625,-0.3438 -2.33122,0 -4.63587,0.1 -6.90625,0.3438 -2.27038,0.2443 -4.52051,0.617 -6.71875,1.0938 -2.19824,0.4765 -4.35398,1.0842 -6.46875,1.7812 -2.11477,0.697 -4.16751,1.501 -6.1875,2.4062 -1.55973,0.6992 -3.06525,1.4955 -4.5625,2.3126 -4.02212,-19.1184 -6.46875,-41.3549 -6.46875,-65.40632 0,-36.06756 5.26972,-68.50004 13.625,-91.46875 0.65988,0.77006 1.2208,1.62705 1.9375,2.34375 1.77854,1.77854 3.72107,3.36831 5.8125,4.78125 1.584,1.07013 3.32287,1.91602 5.0625,2.75 -0.61102,2.36962 -1.19332,4.7933 -1.6875,7.3125 -0.56406,2.87539 -1.03063,5.82336 -1.4375,8.875 -0.40687,3.05164 -0.75562,6.1982 -1,9.40625 -0.24438,3.20805 -0.39217,6.49914 -0.46875,9.84375 -0.0766,3.34461 -0.0653,6.75742 0.0312,10.21875 0.0965,3.46133 0.28758,6.97305 0.5625,10.53125 0.27492,3.5582 0.63513,7.14603 1.09375,10.78125 0.45862,3.63522 1.00862,7.30759 1.65625,11 0.64763,3.69241 1.38467,7.3181 2.1875,10.87502 0.80283,3.5569 1.67855,7.0321 2.625,10.4375 0.94645,3.4054 1.95277,6.7309 3.03125,9.9688 1.07848,3.2378 2.20734,6.4144 3.40625,9.4687 1.19891,3.0543 2.47349,5.989 3.78125,8.8437 1.30776,2.8548 2.65748,5.6108 4.0625,8.25 0.73519,1.3811 1.52185,2.6501 2.28125,3.9688 z"
       style="fill:#e3dbdb;fill-opacity:1;stroke:none"
       inkscape:connector-curvature="0"
       inkscape:export-filename="/home/jdowner/projects/moonhopper/resources/avatar.png"
       inkscape:export-xdpi="4.8655043"
       inkscape:export-ydpi="4.8655043" />
  </g>
</svg>
