<?xml version="1.0" encoding="UTF-8" standalone="no"?>
<!-- Created with Inkscape (http://www.inkscape.org/) -->

<svg
   xmlns:dc="http://purl.org/dc/elements/1.1/"
   xmlns:cc="http://creativecommons.org/ns#"
   xmlns:rdf="http://www.w3.org/1999/02/22-rdf-syntax-ns#"
   xmlns:svg="http://www.w3.org/2000/svg"
   xmlns="http://www.w3.org/2000/svg"
   xmlns:sodipodi="http://sodipodi.sourceforge.net/DTD/sodipodi-0.dtd"
   xmlns:inkscape="http://www.inkscape.org/namespaces/inkscape"
   width="744.09448819"
   height="1052.3622047"
   id="svg2"
   version="1.1"
   inkscape:version="0.48.0 r9654"
   sodipodi:docname="New document 1">
  <defs
     id="defs4" />
  <sodipodi:namedview
     id="base"
     pagecolor="#ffffff"
     bordercolor="#666666"
     borderopacity="1.0"
     inkscape:pageopacity="0.0"
     inkscape:pageshadow="2"
     inkscape:zoom="0.53722645"
     inkscape:cx="270.60978"
     inkscape:cy="753.96319"
     inkscape:document-units="px"
     inkscape:current-layer="layer1"
     showgrid="false"
     inkscape:window-width="1110"
     inkscape:window-height="756"
     inkscape:window-x="140"
     inkscape:window-y="49"
     inkscape:window-maximized="0" />
  <metadata
     id="metadata7">
    <rdf:RDF>
      <cc:Work
         rdf:about="">
        <dc:format>image/svg+xml</dc:format>
        <dc:type
           rdf:resource="http://purl.org/dc/dcmitype/StillImage" />
        <dc:title></dc:title>
      </cc:Work>
    </rdf:RDF>
  </metadata>
  <g
     inkscape:label="Layer 1"
     inkscape:groupmode="layer"
     id="layer1">
    <path
       sodipodi:type="arc"
       style="fill:#8cae3c;fill-rule:evenodd;stroke:#000000;stroke-width:3;stroke-linecap:butt;stroke-linejoin:miter;stroke-opacity:1;fill-opacity:1;stroke-miterlimit:4;stroke-dasharray:none"
       id="path2985"
       sodipodi:cx="262.85715"
       sodipodi:cy="315.21933"
       sodipodi:rx="194.28572"
       sodipodi:ry="194.28572"
       d="m 457.14287,315.21933 a 194.28572,194.28572 0 1 1 -388.571444,0 194.28572,194.28572 0 1 1 388.571444,0 z" />
    <path
       sodipodi:type="arc"
       style="fill:#1c5e1c;fill-opacity:1;stroke:#000000;stroke-width:2.42193629;stroke-miterlimit:4;stroke-opacity:1;stroke-dasharray:none"
       id="path3755"
       sodipodi:cx="227.09232"
       sodipodi:cy="205.41951"
       sodipodi:rx="68.872261"
       sodipodi:ry="27.921186"
       d="m 295.96458,205.41951 a 68.872261,27.921186 0 1 1 -137.74453,0 68.872261,27.921186 0 1 1 137.74453,0 z"
       transform="matrix(0.66936892,-0.13024041,0.19099025,0.98159193,23.25095,16.605263)" />
    <path
       transform="matrix(0.33003875,0.89428,-1.3347831,0.44719019,594.08041,-27.130486)"
       d="m 295.96458,205.41951 a 68.872261,27.921186 0 1 1 -137.74453,0 68.872261,27.921186 0 1 1 137.74453,0 z"
       sodipodi:ry="27.921186"
       sodipodi:rx="68.872261"
       sodipodi:cy="205.41951"
       sodipodi:cx="227.09232"
       id="path3757"
       style="fill:#1c5e1c;fill-opacity:1;stroke:#000000;stroke-width:1.72692518;stroke-miterlimit:4;stroke-opacity:1;stroke-dasharray:none"
       sodipodi:type="arc"
       inkscape:transform-center-x="40.122614"
       inkscape:transform-center-y="2.4302734" />
    <path
       transform="matrix(0.43421864,-0.12232951,0.12389509,0.92196932,144.79542,86.621607)"
       d="m 295.96458,205.41951 a 68.872261,27.921186 0 1 1 -137.74453,0 68.872261,27.921186 0 1 1 137.74453,0 z"
       sodipodi:ry="27.921186"
       sodipodi:rx="68.872261"
       sodipodi:cy="205.41951"
       sodipodi:cx="227.09232"
       id="path3759"
       style="fill:#1c5e1c;fill-opacity:1;stroke:#000000;stroke-width:3.10276234;stroke-miterlimit:4;stroke-opacity:1;stroke-dasharray:none"
       sodipodi:type="arc" />
    <path
       sodipodi:type="arc"
       style="fill:#1c5e1c;fill-opacity:1;stroke:#000000;stroke-width:2.34714818;stroke-miterlimit:4;stroke-opacity:1;stroke-dasharray:none"
       id="path3761"
       sodipodi:cx="156.35864"
       sodipodi:cy="421.34335"
       sodipodi:rx="18.614124"
       sodipodi:ry="18.614124"
       d="m 174.97277,421.34335 a 18.614124,18.614124 0 1 1 -37.22825,0 18.614124,18.614124 0 1 1 37.22825,0 z"
       transform="matrix(0.62494437,-0.42886619,0.5420316,0.78984915,-174.39176,156.5333)" />
    <path
       sodipodi:type="arc"
       style="fill:#1c5e1c;fill-opacity:1;stroke:#000000;stroke-width:3.15947281;stroke-miterlimit:4;stroke-opacity:1;stroke-dasharray:none"
       id="path3763"
       sodipodi:cx="247.56786"
       sodipodi:cy="458.57162"
       sodipodi:rx="16.752712"
       sodipodi:ry="16.752712"
       d="m 264.32057,458.57162 a 16.752712,16.752712 0 1 1 -33.50543,0 16.752712,16.752712 0 1 1 33.50543,0 z"
       transform="matrix(0.633017,0,0,0.633017,52.694239,148.74316)" />
  </g>
</svg>
